<?xml version="1.0" standalone="no"?>
<!DOCTYPE svg PUBLIC "-//W3C//DTD SVG 20010904//EN"
 "http://www.w3.org/TR/2001/REC-SVG-20010904/DTD/svg10.dtd">
<svg version="1.0" xmlns="http://www.w3.org/2000/svg"
 width="500.000000pt" height="500.000000pt" viewBox="0 0 500.000000 500.000000"
 preserveAspectRatio="xMidYMid meet">

<g transform="translate(0.000000,500.000000) scale(0.100000,-0.100000)"
fill="#000000" stroke="none">
<path d="M835 2910 c-11 -5 -88 -9 -171 -9 l-151 -1 -6 -122 c-4 -66 -7 -318
-7 -560 l0 -438 720 0 720 0 0 514 c0 282 -3 534 -6 560 l-7 46 -323 0 c-178
0 -324 -2 -324 -4 0 -3 38 -85 85 -182 89 -185 91 -197 35 -192 -21 3 -34 21
-80 110 -30 60 -57 108 -60 108 -3 0 -27 -44 -54 -97 -27 -54 -56 -104 -64
-110 -18 -15 -58 -17 -67 -4 -3 5 33 89 80 187 47 97 84 178 83 180 -2 1 -69
4 -150 6 l-146 3 44 -24 c50 -28 54 -39 20 -70 -23 -22 -26 -22 -48 -7 -26 19
-96 21 -118 3 -31 -24 -50 -62 -50 -100 0 -55 52 -107 107 -107 21 0 49 7 62
16 22 16 24 15 48 -9 31 -30 25 -43 -31 -68 -94 -43 -206 -5 -254 86 -26 50
-21 133 10 186 30 51 103 95 168 102 34 4 34 4 -5 5 -22 0 -49 -3 -60 -8z
m610 -475 l0 -30 -72 -3 -72 -3 -3 -147 -3 -147 -35 0 -35 0 -3 147 -3 147
-72 3 c-60 3 -72 6 -75 21 -9 46 -4 48 190 45 l183 -3 0 -30z m293 3 l-3 -33
-77 -3 -78 -3 0 -44 0 -45 65 0 65 0 0 -35 0 -35 -65 0 -65 0 0 -57 c0 -71 -9
-86 -46 -81 l-29 3 -3 183 -2 182 120 0 121 0 -3 -32z"/>
<path d="M2279 2825 c-34 -18 -64 -85 -55 -121 19 -75 83 -114 154 -95 21 6
47 20 57 31 16 18 17 20 1 26 -9 4 -32 -2 -51 -12 -45 -24 -83 -11 -109 37
-19 36 -19 36 0 70 26 43 73 59 108 35 31 -20 56 -21 56 -1 0 38 -109 58 -161
30z"/>
<path d="M2510 2726 l0 -116 85 0 c71 0 83 2 79 15 -5 11 -22 15 -65 15 l-58
0 -3 97 c-3 84 -6 98 -20 101 -16 3 -18 -7 -18 -112z"/>
<path d="M2727 2728 l2 -113 86 -3 c68 -2 86 0 83 10 -3 8 -27 14 -66 16 l-62
3 0 34 0 35 50 0 c38 0 50 4 50 15 0 11 -12 15 -50 15 l-50 0 0 35 0 34 62 3
c38 2 63 8 66 16 3 9 -18 12 -85 12 l-88 0 2 -112z"/>
<path d="M2997 2724 c-49 -97 -55 -114 -39 -114 10 0 27 9 37 20 13 15 31 20
66 20 38 0 52 -4 61 -20 7 -11 23 -20 36 -20 21 0 19 5 -34 108 -30 59 -58
110 -62 114 -4 4 -33 -45 -65 -108z m81 1 c18 -38 15 -45 -18 -45 -16 0 -30 4
-30 10 0 15 23 60 30 60 4 0 12 -11 18 -25z"/>
<path d="M3230 2726 c0 -109 1 -116 20 -116 18 0 20 7 20 65 0 36 4 65 8 65 4
0 40 -30 80 -66 l72 -66 0 117 c0 106 -2 116 -17 113 -15 -3 -19 -17 -23 -72
l-5 -68 -20 22 c-11 12 -46 45 -77 72 l-58 50 0 -116z"/>
<path d="M3660 2733 c-30 -58 -56 -110 -58 -114 -7 -18 34 -8 51 11 13 15 29
20 67 20 39 0 51 -4 60 -20 9 -17 50 -29 50 -15 0 7 -109 225 -113 225 -1 0
-27 -48 -57 -107z m75 -14 c19 -37 16 -41 -22 -37 -29 3 -29 3 -16 36 7 17 15
32 18 32 2 0 12 -14 20 -31z"/>
<path d="M3892 2728 c3 -98 5 -113 21 -116 15 -3 17 7 17 112 0 110 -1 116
-20 116 -20 0 -21 -5 -18 -112z"/>
<path d="M4010 2725 c0 -108 1 -115 20 -115 16 0 20 7 20 35 0 32 3 35 28 35
20 0 33 -9 50 -35 16 -25 29 -35 48 -35 l26 0 -27 36 -27 35 23 25 c31 33 31
90 0 115 -18 15 -40 19 -92 19 l-69 0 0 -115z m137 58 c17 -22 16 -28 -3 -47
-9 -9 -32 -16 -55 -16 -39 0 -39 0 -39 38 0 21 3 42 8 46 12 13 76 -2 89 -21z"/>
<path d="M2306 2390 c-51 -3 -81 -10 -84 -17 -2 -9 8 -13 32 -13 l36 0 0 -100
c0 -93 1 -100 20 -100 18 0 20 8 22 98 l3 97 33 3 c19 2 32 9 32 17 0 20 -6
21 -94 15z"/>
<path d="M2720 2393 c-30 -12 -50 -37 -50 -63 0 -34 14 -46 81 -68 41 -13 55
-22 57 -38 4 -27 -33 -38 -77 -23 -32 11 -61 7 -61 -9 0 -15 49 -32 93 -32 58
0 87 22 87 65 0 42 -20 62 -68 71 -48 9 -72 21 -72 39 0 19 34 28 79 20 42 -7
60 5 36 25 -16 14 -83 22 -105 13z"/>
<path d="M3064 2390 c-12 -5 -39 -32 -60 -62 l-39 -53 -5 55 c-4 47 -8 55 -25
55 -19 0 -20 -7 -20 -110 0 -103 1 -110 20 -110 17 0 21 8 25 48 l5 48 50 -50
c32 -33 58 -51 73 -51 22 0 19 5 -27 57 -30 34 -47 61 -43 67 5 6 25 32 46 58
38 47 38 62 0 48z"/>
<path d="M3565 2386 c-43 -19 -65 -57 -65 -112 0 -39 5 -51 34 -80 29 -29 41
-34 83 -34 55 0 86 17 108 60 31 59 7 137 -50 164 -40 19 -70 20 -110 2z m105
-46 c45 -45 33 -111 -24 -138 -32 -16 -80 -2 -96 29 -43 80 57 172 120 109z"/>
<path d="M3804 2391 c-2 -2 -4 -55 -4 -118 0 -105 1 -113 19 -113 16 0 20 8
23 38 4 54 34 55 76 2 18 -22 42 -40 52 -40 26 0 25 8 -5 44 l-24 30 25 29
c29 35 31 66 4 100 -18 22 -29 26 -91 29 -39 2 -73 1 -75 -1z m130 -50 c35
-38 -3 -78 -65 -69 -18 2 -25 10 -27 31 -2 16 -1 35 2 43 8 21 70 18 90 -5z"/>
<path d="M4102 2380 c-32 -20 -62 -71 -62 -106 0 -31 33 -85 61 -99 41 -22
101 -19 133 6 48 38 25 53 -36 23 -43 -20 -81 -7 -103 36 -38 73 47 153 111
105 25 -19 54 -19 54 0 0 21 -43 46 -87 51 -27 4 -47 -1 -71 -16z"/>
<path d="M4330 2278 l0 -118 85 0 c66 0 85 3 85 14 0 19 -22 26 -81 26 -48 0
-49 1 -49 29 0 28 2 30 47 33 64 4 69 26 6 30 -46 3 -48 4 -51 35 l-3 32 63 3
c44 2 63 7 63 16 0 10 -21 14 -83 15 l-82 2 0 -117z"/>
<path d="M2457 2275 c-51 -102 -55 -115 -37 -115 11 0 25 9 32 20 10 16 24 20
68 20 44 0 58 -4 68 -20 7 -11 21 -20 32 -20 18 0 14 12 -37 115 -32 63 -60
115 -63 115 -3 0 -31 -52 -63 -115z m81 0 c18 -38 15 -45 -18 -45 -16 0 -30 4
-30 10 0 15 23 60 30 60 4 0 12 -11 18 -25z"/>
<path d="M3280 2274 c0 -105 2 -115 18 -112 12 2 18 16 22 48 l5 45 48 3 c33
2 47 7 47 18 0 10 -13 14 -50 14 l-50 0 0 35 0 34 62 3 c38 2 63 8 66 16 3 9
-18 12 -82 12 l-86 0 0 -116z"/>
</g>
</svg>
